<svg xmlns="http://www.w3.org/2000/svg" xmlns:xlink="http://www.w3.org/1999/xlink" width="793" zoomAndPan="magnify" viewBox="0 0 595.5 842.249979" height="1122" preserveAspectRatio="xMidYMid meet" version="1.0"><defs><clipPath id="130c409af5"><path d="M 0.015625 0 L 594.984375 0 L 594.984375 841.5 L 0.015625 841.5 Z M 0.015625 0 " clip-rule="nonzero"/></clipPath><clipPath id="6178c50438"><path d="M 101.550781 297.941406 L 494 297.941406 L 494 543.929688 L 101.550781 543.929688 Z M 101.550781 297.941406 " clip-rule="nonzero"/></clipPath><clipPath id="c7a4dd4606"><path d="M 402.464844 543.910156 C 452.863281 543.910156 493.71875 503.050781 493.71875 452.65625 C 493.71875 402.257812 452.863281 361.398438 402.464844 361.398438 C 388.804688 361.398438 375.855469 364.417969 364.21875 369.796875 C 354.21875 328.5625 317.078125 297.941406 272.78125 297.941406 C 220.804688 297.941406 178.667969 340.082031 178.667969 392.058594 C 178.667969 395.15625 178.828125 398.226562 179.117188 401.257812 C 177.105469 401.085938 175.078125 400.976562 173.015625 400.976562 C 133.550781 400.96875 101.550781 432.964844 101.550781 472.441406 C 101.550781 511.921875 133.550781 543.910156 173.015625 543.910156 Z M 402.464844 543.910156 " clip-rule="nonzero"/></clipPath><clipPath id="6fe90f9e49"><path d="M 195 374 L 466.53125 374 L 466.53125 529.929688 L 195 529.929688 Z M 195 374 " clip-rule="nonzero"/></clipPath><clipPath id="8e39d90baf"><path d="M 395.734375 382.90625 C 352.085938 382.90625 334.96875 409.386719 322.6875 449.175781 C 312.5 482.582031 301.441406 499.550781 269.253906 499.550781 C 231.125 499.550781 225.433594 471.363281 225.433594 454.554688 C 225.433594 425.984375 241.09375 409.238281 273.292969 403.347656 C 276.371094 402.785156 278.621094 400.097656 278.621094 396.957031 L 278.621094 380.679688 C 278.621094 378.828125 277.832031 377.066406 276.453125 375.839844 C 275.070312 374.609375 273.25 374.007812 271.402344 374.226562 C 256.972656 375.847656 236.34375 380.707031 220.015625 394.738281 C 203.554688 408.867188 195.207031 428.804688 195.207031 453.984375 C 195.207031 499.8125 224.835938 529.421875 270.691406 529.421875 C 302.261719 529.421875 334.089844 520.902344 353.078125 459.09375 C 364.21875 422.734375 373.625 412.777344 396.816406 412.777344 C 421.953125 412.777344 435.242188 426.226562 435.242188 451.664062 C 435.242188 477.203125 422.222656 491.34375 394.277344 496.171875 C 391.164062 496.710938 388.886719 499.410156 388.886719 502.570312 L 388.886719 518.859375 C 388.886719 520.679688 389.644531 522.410156 390.984375 523.640625 C 392.324219 524.871094 394.117188 525.480469 395.933594 525.332031 C 428.34375 522.550781 466.203125 501.820312 466.203125 452.542969 C 466.203125 404.445312 430.8125 382.929688 395.746094 382.929688 " clip-rule="nonzero"/></clipPath></defs><g clip-path="url(#130c409af5)"><path fill="#ffffff" d="M 0.015625 0 L 595.484375 0 L 595.484375 848.957031 L 0.015625 848.957031 Z M 0.015625 0 " fill-opacity="1" fill-rule="nonzero"/><path fill="#ffffff" d="M 0.015625 0 L 595.484375 0 L 595.484375 842.207031 L 0.015625 842.207031 Z M 0.015625 0 " fill-opacity="1" fill-rule="nonzero"/></g><g clip-path="url(#6178c50438)"><g clip-path="url(#c7a4dd4606)"><path fill="#828282" d="M 96.550781 292.941406 L 498.53125 292.941406 L 498.53125 548.929688 L 96.550781 548.929688 Z M 96.550781 292.941406 " fill-opacity="1" fill-rule="nonzero"/></g></g><g clip-path="url(#6fe90f9e49)"><g clip-path="url(#8e39d90baf)"><path fill="#7bd0ff" d="M 96.550781 292.941406 L 498.53125 292.941406 L 498.53125 548.929688 L 96.550781 548.929688 Z M 96.550781 292.941406 " fill-opacity="1" fill-rule="nonzero"/></g></g></svg>