<svg xmlns="http://www.w3.org/2000/svg" xmlns:xlink="http://www.w3.org/1999/xlink" width="793" zoomAndPan="magnify" viewBox="0 0 595.5 842.249979" height="1122" preserveAspectRatio="xMidYMid meet" version="1.0"><defs><clipPath id="41d4831ed0"><path d="M 189.078125 313.570312 L 422 313.570312 L 422 528.558594 L 189.078125 528.558594 Z M 189.078125 313.570312 " clip-rule="nonzero"/></clipPath><clipPath id="0ac09600cb"><path d="M 421.707031 330.617188 C 413.039062 330.617188 406.867188 331.339844 403.21875 332.789062 C 399.570312 334.238281 397.238281 336.308594 396.277344 339 L 272.425781 528.277344 L 246.007812 528.277344 L 253.265625 420.925781 L 206.609375 420.925781 L 212.777344 339.289062 C 212.558594 336.1875 208.917969 334.230469 204.6875 332.789062 C 200.457031 331.347656 195.238281 330.617188 189.078125 330.617188 L 189.078125 313.570312 L 294.554688 313.570312 L 294.554688 330.617188 L 269.125 330.617188 C 263.535156 330.617188 261.15625 332.277344 260.746094 335.527344 L 246.65625 405.34375 L 292.984375 405.394531 L 275.726562 493.128906 L 372.582031 341.597656 C 373.160156 340.25 373.449219 338.898438 373.449219 337.546875 C 373.449219 332.929688 369.109375 330.609375 360.441406 330.609375 L 342.523438 330.609375 L 342.523438 313.570312 L 421.40625 313.570312 Z M 421.707031 330.617188 " clip-rule="nonzero"/></clipPath></defs><g clip-path="url(#41d4831ed0)"><g clip-path="url(#0ac09600cb)"><path fill="#0b7aff" d="M 189.078125 313.570312 L 422.066406 313.570312 L 422.066406 528.558594 L 189.078125 528.558594 Z M 189.078125 313.570312 " fill-opacity="1" fill-rule="nonzero"/></g></g></svg>